<?xml version="1.0" standalone="no"?>
<!DOCTYPE svg PUBLIC "-//W3C//DTD SVG 1.1//EN" 
"http://www.w3.org/Graphics/SVG/1.1/DTD/svg11.dtd">

<svg width="100%" height="100%" version="1.1"
xmlns="http://www.w3.org/2000/svg">

<path d="M816.638 907.024c-130.818 72.886-219.306 212.598-219.306 372.976 0 235.642 191.026 426.666 426.666 426.666s426.666-191.026 426.666-426.666c0-160.38-88.488-300.092-219.306-372.976 227.682-72.84 389.972-266.034 389.972-523.024 0-23.564-19.102-42.666-42.666-42.666s-42.666 19.102-42.666 42.666c0 282.77-229.23 469.334-512 469.334s-512-186.564-512-469.334c0-23.564-19.102-42.666-42.666-42.666s-42.666 19.102-42.666 42.666c0 256.99 162.288 450.182 389.972 523.024zM1024 938.666c188.514 0 341.334 152.82 341.334 341.334s-152.82 341.334-341.334 341.334c-188.514 0-341.334-152.82-341.334-341.334s152.82-341.334 341.334-341.334z" 
fill="#ff0000"/>

</svg>
